<?xml version="1.0" encoding="UTF-8" standalone="no"?>
<!-- Uploaded to: SVG Repo, www.svgrepo.com, Generator: SVG Repo Mixer Tools -->

<svg
   width="800px"
   height="800px"
   viewBox="0 0 24 24"
   fill="none"
   version="1.1"
   id="svg15"
   sodipodi:docname="link-svgrepo-com.svg"
   inkscape:version="1.2.2 (b0a8486541, 2022-12-01)"
   xmlns:inkscape="http://www.inkscape.org/namespaces/inkscape"
   xmlns:sodipodi="http://sodipodi.sourceforge.net/DTD/sodipodi-0.dtd"
   xmlns="http://www.w3.org/2000/svg"
   xmlns:svg="http://www.w3.org/2000/svg">
  <sodipodi:namedview
     id="namedview17"
     pagecolor="#ffffff"
     bordercolor="#000000"
     borderopacity="0.25"
     inkscape:showpageshadow="2"
     inkscape:pageopacity="0.0"
     inkscape:pagecheckerboard="0"
     inkscape:deskcolor="#d1d1d1"
     showgrid="false"
     inkscape:zoom="0.9775"
     inkscape:cx="400"
     inkscape:cy="400.51151"
     inkscape:window-width="1920"
     inkscape:window-height="1014"
     inkscape:window-x="0"
     inkscape:window-y="0"
     inkscape:window-maximized="1"
     inkscape:current-layer="svg15" />
  <path
     d="m 16.2427,12 2.8284,-2.82841 c 0,0 1.4142,-1.41422 -0.7071,-3.53553 -2.1213,-2.12131 -3.5355,-0.70711 -3.5355,-0.70711 0,0 -2.1214,2.12132 -3.5356,3.53553 C 9.87873,9.87869 9.87873,11.2929 10.5858,12"
     stroke="#000000"
     stroke-linecap="round"
     stroke-linejoin="round"
     id="path4"
     clip-path="url(#clipPath313)" />
  <path
     d="m 7.75745,12 -2.82843,2.8284 c 0,0 -1.41422,1.4142 0.70711,3.5356 2.12132,2.1213 3.53553,0.7071 3.53553,0.7071 0,0 1.76774,-1.7678 3.18194,-3.182 1.4143,-1.4142 1.7678,-3.182 1.0607,-3.8891"
     stroke="#000000"
     stroke-linecap="round"
     stroke-linejoin="round"
     id="path6"
     clip-path="url(#clipPath307)" />
  <defs
     id="defs13">
    <clipPath
       clipPathUnits="userSpaceOnUse"
       id="clipPath307">
      <g
         id="g311">
        <rect
           width="24"
           height="24"
           fill="#ffffff"
           id="rect309"
           x="0"
           y="0" />
      </g>
    </clipPath>
    <clipPath
       clipPathUnits="userSpaceOnUse"
       id="clipPath313">
      <g
         id="g317">
        <rect
           width="24"
           height="24"
           fill="#ffffff"
           id="rect315"
           x="0"
           y="0" />
      </g>
    </clipPath>
    <clipPath
       clipPathUnits="userSpaceOnUse"
       id="clipPath319">
      <g
         id="g323">
        <rect
           width="24"
           height="24"
           fill="#ffffff"
           id="rect321"
           x="0"
           y="0" />
      </g>
    </clipPath>
  </defs>
</svg>
