<?xml version="1.0" encoding="UTF-8" standalone="no"?>
<!-- Uploaded to: SVG Repo, www.svgrepo.com, Generator: SVG Repo Mixer Tools -->

<svg
   width="800px"
   height="800px"
   viewBox="0 0 24 24"
   fill="none"
   version="1.1"
   id="svg8"
   sodipodi:docname="pause-svgrepo-com.svg"
   inkscape:version="1.2.2 (b0a8486541, 2022-12-01)"
   xmlns:inkscape="http://www.inkscape.org/namespaces/inkscape"
   xmlns:sodipodi="http://sodipodi.sourceforge.net/DTD/sodipodi-0.dtd"
   xmlns="http://www.w3.org/2000/svg"
   xmlns:svg="http://www.w3.org/2000/svg">
  <defs
     id="defs12" />
  <sodipodi:namedview
     id="namedview10"
     pagecolor="#ffffff"
     bordercolor="#000000"
     borderopacity="0.25"
     inkscape:showpageshadow="2"
     inkscape:pageopacity="0.0"
     inkscape:pagecheckerboard="0"
     inkscape:deskcolor="#d1d1d1"
     showgrid="false"
     inkscape:zoom="0.9775"
     inkscape:cx="400"
     inkscape:cy="400.51151"
     inkscape:window-width="1920"
     inkscape:window-height="1014"
     inkscape:window-x="0"
     inkscape:window-y="0"
     inkscape:window-maximized="1"
     inkscape:current-layer="svg8" />
  <path
     d="M8.5 18H9.5C10.0523 18 10.5 17.5523 10.5 17V7C10.5 6.44772 10.0523 6 9.5 6H8.5C7.94772 6 7.5 6.44772 7.5 7V17C7.5 17.5523 7.94772 18 8.5 18Z"
     stroke="#000000"
     stroke-linecap="round"
     stroke-linejoin="round"
     id="path4" />
  <path
     d="M14.5 18H15.5C16.0523 18 16.5 17.5523 16.5 17V7C16.5 6.44772 16.0523 6 15.5 6H14.5C13.9477 6 13.5 6.44772 13.5 7V17C13.5 17.5523 13.9477 18 14.5 18Z"
     stroke="#000000"
     stroke-linecap="round"
     stroke-linejoin="round"
     id="path6" />
</svg>
